<svg xmlns="http://www.w3.org/2000/svg" xmlns:xlink="http://www.w3.org/1999/xlink" version="1.1" width="1000" height="1000" viewBox="0 0 1000 1000" xml:space="preserve">
<desc>Created with Fabric.js 3.5.0</desc>
<defs>
</defs>
<rect x="0" y="0" width="100%" height="100%" fill="rgba(255,255,255,0)"/>
<g transform="matrix(-2.0245 0 0 2.0333 498.6601 499.3378)" id="121369">
<path style="stroke: none; stroke-width: 0; stroke-dasharray: none; stroke-linecap: butt; stroke-dashoffset: 0; stroke-linejoin: miter; stroke-miterlimit: 4; is-custom-font: none; font-file-url: none; fill: rgb(12,184,182); fill-rule: evenodd; opacity: 0.251;" vector-effect="non-scaling-stroke" transform=" translate(-245, -244.5045)" d="M 437.987 477.956 C 440.683 477.956 442.882 480.077 443.014 482.747 L 489.999 482.747 L 489.999 483.253 L 443.014 483.253 C 442.882 485.924 440.683 488.049 437.987 488.049 C 435.207 488.049 432.955 485.789 432.955 483 C 432.955 481.224 433.871 479.662 435.255 478.763 L 406.361 428.598 C 405.748 428.909 405.054 429.084 404.32 429.084 C 401.903 429.084 399.928 427.188 399.796 424.8 L 343.059 424.8 C 342.927 428.05 340.256 430.644 336.981 430.644 C 333.622 430.644 330.901 427.914 330.901 424.546 C 330.901 422.38 332.026 420.478 333.723 419.396 L 305.514 370.417 C 304.854 370.755 304.106 370.946 303.313 370.946 C 300.635 370.946 298.467 368.773 298.467 366.092 C 298.467 363.408 300.635 361.233 303.313 361.233 C 304.106 361.233 304.853 361.424 305.514 361.763 L 333.879 312.512 C 332.274 311.485 331.21 309.684 331.21 307.632 C 331.21 305.583 332.274 303.783 333.879 302.755 L 304.911 252.461 C 304.428 252.697 303.886 252.831 303.313 252.831 C 301.386 252.831 299.81 251.329 299.68 249.432 L 242.202 249.432 C 242.07 252.766 239.332 255.428 235.974 255.428 C 232.532 255.428 229.741 252.63 229.741 249.179 C 229.741 246.957 230.898 245.006 232.641 243.898 L 205.322 196.463 C 204.421 196.94 203.396 197.21 202.307 197.21 C 198.816 197.21 195.972 194.441 195.839 190.975 L 140.054 190.975 C 139.922 193.677 137.697 195.828 134.968 195.828 C 132.154 195.828 129.876 193.541 129.876 190.721 C 129.876 188.921 130.803 187.342 132.205 186.432 L 103.033 135.782 C 102.511 136.042 101.923 136.187 101.301 136.187 C 99.223 136.187 97.527 134.569 97.397 132.52 L 33.814 132.52 L 0.074 73.935 L 0.001 73.809 L 33.668 15.355 L 25.379 0.96 L 25.965 0.96 L 34.107 15.101 L 96.947 15.101 C 97.078 12.805 98.977 10.983 101.301 10.983 C 102.004 10.983 102.669 11.15 103.257 11.447 L 101.153 15.101 L 101.154 15.101 L 103.257 11.447 L 109.296 0.96 L 109.882 0.96 L 103.696 11.702 C 104.879 12.483 105.66 13.828 105.66 15.355 C 105.66 16.88 104.879 18.224 103.696 19.005 L 123.94 54.155 L 131.329 66.981 C 132.413 66.401 133.652 66.07 134.968 66.07 C 139.146 66.07 142.549 69.4 142.684 73.556 L 194.671 73.556 C 194.806 69.443 198.172 66.154 202.307 66.154 C 203.608 66.154 204.833 66.48 205.904 67.054 L 202.16 73.556 L 202.161 73.556 L 205.904 67.054 L 224.508 34.755 L 233.059 19.909 C 231.567 18.945 230.58 17.265 230.58 15.355 C 230.58 13.444 231.568 11.765 233.06 10.803 L 227.393 0.96 L 227.979 0.96 L 233.499 10.548 C 234.241 10.164 235.082 9.946 235.974 9.946 C 238.87 9.946 241.235 12.232 241.367 15.101 L 297.018 15.101 C 297.088 13.341 297.875 11.767 299.096 10.663 L 293.507 0.96 L 296.554 0.96 L 301.382 9.342 C 301.99 9.145 302.639 9.04 303.313 9.04 C 304.37 9.04 305.366 9.3 306.241 9.761 L 311.31 0.96 L 311.895 0.96 L 306.68 10.016 C 308.442 11.136 309.613 13.107 309.613 15.355 C 309.613 17.211 308.814 18.88 307.541 20.035 L 326.876 53.603 L 413.111 53.603 L 433.435 18.318 C 432.881 17.464 432.559 16.447 432.559 15.355 C 432.559 13.432 433.554 11.743 435.056 10.774 L 429.406 0.96 L 429.991 0.96 L 435.496 10.519 C 436.242 10.132 437.089 9.912 437.987 9.912 C 438.083 9.912 438.178 9.915 438.272 9.919 L 443.432 0.96 L 446.479 0.96 L 440.852 10.731 C 442.324 11.651 443.325 13.257 443.41 15.101 L 489.999 15.101 L 489.999 15.61 L 443.41 15.61 C 443.276 18.497 440.898 20.795 437.987 20.795 C 437.09 20.795 436.243 20.577 435.497 20.19 L 415.442 55.007 L 436.955 92.357 L 458.513 129.786 L 489.999 129.786 L 489.999 132.013 L 489.999 132.433 L 489.999 132.52 L 458.464 132.52 L 436.955 169.865 L 415.396 207.296 L 435.439 242.094 C 436.235 241.808 437.093 241.651 437.987 241.651 C 442.049 241.651 445.358 244.884 445.494 248.922 L 489.999 248.922 L 489.999 249.432 L 445.494 249.432 C 445.421 251.636 444.404 253.601 442.833 254.931 L 458.513 282.157 L 489.999 282.157 L 489.999 284.801 L 456.99 284.801 L 440.55 256.257 C 439.75 256.549 438.887 256.708 437.987 256.708 C 436.71 256.708 435.507 256.387 434.453 255.824 L 415.786 288.234 L 406.088 305.07 C 406.899 305.634 407.43 306.572 407.43 307.632 C 407.43 308.696 406.899 309.634 406.088 310.196 L 426.96 346.434 L 434.159 358.932 C 435.299 358.318 436.603 357.97 437.987 357.97 C 442.375 357.97 445.947 361.468 446.083 365.834 L 489.999 365.834 L 489.999 366.344 L 446.083 366.344 C 445.949 370.709 442.377 374.209 437.987 374.209 C 436.603 374.209 435.299 373.861 434.159 373.247 L 415.786 405.145 L 406.799 420.748 C 408.033 421.559 408.846 422.956 408.846 424.546 C 408.846 426.135 408.033 427.533 406.799 428.343 L 435.693 478.509 C 436.381 478.156 437.161 477.956 437.987 477.956 Z M 437.694 15.355 L 437.694 15.355 L 436.418 13.139 L 437.694 15.355 Z M 205.761 196.211 L 233.08 243.643 C 233.945 243.189 234.93 242.93 235.974 242.93 C 239.331 242.93 242.068 245.59 242.202 248.922 L 299.681 248.922 C 299.811 247.026 301.387 245.527 303.313 245.527 C 303.885 245.527 304.427 245.66 304.909 245.896 C 304.909 245.896 304.909 245.896 304.91 245.896 L 326.38 208.619 L 325.349 208.619 L 281.52 132.52 L 241.403 132.52 C 241.271 135.41 238.89 137.714 235.974 137.714 C 235.075 137.714 234.227 137.495 233.479 137.106 L 236.122 132.52 L 236.121 132.52 L 233.479 137.106 L 213.773 171.321 L 205.76 185.233 C 207.575 186.383 208.779 188.412 208.779 190.721 C 208.779 193.032 207.575 195.061 205.761 196.211 Z M 436.163 129.607 L 415.347 93.463 L 407.259 79.422 C 406.381 79.884 405.381 80.148 404.32 80.148 C 400.911 80.148 398.133 77.443 398.001 74.062 L 344.404 74.062 C 344.273 78.057 340.999 81.255 336.981 81.255 C 335.719 81.255 334.53 80.94 333.488 80.381 L 337.128 74.062 L 337.127 74.062 L 333.488 80.381 L 314.779 112.865 L 305.622 128.767 C 306.752 129.518 307.497 130.805 307.497 132.267 C 307.497 133.73 306.752 135.016 305.622 135.765 L 325.954 171.067 L 335.252 187.212 C 335.774 186.952 336.36 186.807 336.981 186.807 C 339.054 186.807 340.747 188.425 340.878 190.468 L 395.802 190.468 C 395.936 185.866 399.698 182.179 404.32 182.179 C 405.781 182.179 407.157 182.548 408.36 183.198 L 404.173 190.468 L 404.174 190.468 L 408.36 183.198 L 426.521 151.667 L 436.163 134.925 C 435.321 134.343 434.767 133.369 434.767 132.267 C 434.767 131.165 435.321 130.19 436.163 129.607 Z M 404.32 199.263 C 399.698 199.263 395.936 195.576 395.802 190.975 L 340.878 190.975 C 340.748 193.02 339.054 194.635 336.981 194.635 C 336.36 194.635 335.774 194.491 335.252 194.232 L 337.128 190.975 L 337.127 190.975 L 335.252 194.232 L 328.49 205.972 L 412.81 205.972 L 408.36 198.244 C 407.157 198.893 405.781 199.263 404.32 199.263 Z M 334.813 193.977 C 333.766 193.276 333.076 192.079 333.076 190.721 C 333.076 189.365 333.766 188.168 334.813 187.465 L 314.341 151.921 L 305.183 136.021 C 304.62 136.301 303.985 136.461 303.313 136.461 C 301.087 136.461 299.267 134.719 299.137 132.52 L 284.57 132.52 L 326.876 205.972 L 327.905 205.972 L 334.813 193.977 Z M 103.256 19.262 C 102.668 19.558 102.004 19.725 101.301 19.725 C 98.978 19.725 97.08 17.905 96.947 15.61 L 34.107 15.61 L 0.585 73.809 L 34.107 132.013 L 97.397 132.013 C 97.527 129.967 99.223 128.347 101.301 128.347 C 101.922 128.347 102.51 128.491 103.033 128.751 L 101.153 132.013 L 101.154 132.013 L 103.033 128.751 L 123.502 93.211 L 130.889 80.384 C 128.703 79.017 127.248 76.585 127.248 73.813 C 127.248 71.038 128.703 68.604 130.89 67.237 L 103.256 19.262 Z M 202.307 81.468 C 198.169 81.468 194.802 78.174 194.671 74.062 L 142.684 74.062 C 142.552 78.221 139.149 81.552 134.968 81.552 C 133.652 81.552 132.412 81.221 131.328 80.637 L 112.767 112.865 L 103.471 129.006 C 104.52 129.709 105.212 130.907 105.212 132.267 C 105.212 133.628 104.521 134.826 103.471 135.528 L 132.643 186.178 C 133.34 185.819 134.13 185.617 134.968 185.617 C 137.697 185.617 139.922 187.764 140.054 190.468 L 195.839 190.468 C 195.972 187.004 198.816 184.234 202.307 184.234 C 203.396 184.234 204.421 184.502 205.321 184.977 L 202.16 190.468 L 202.161 190.468 L 205.321 184.977 L 224.508 151.667 L 233.041 136.852 C 231.536 135.884 230.539 134.191 230.539 132.267 C 230.539 130.341 231.536 128.649 233.04 127.681 L 213.334 93.463 L 205.905 80.566 C 204.833 81.141 203.608 81.468 202.307 81.468 Z M 305.257 21.362 C 304.645 21.562 303.992 21.669 303.313 21.669 C 299.92 21.669 297.153 18.98 297.018 15.61 L 241.367 15.61 C 241.233 18.479 238.869 20.765 235.974 20.765 C 235.081 20.765 234.24 20.548 233.499 20.163 L 206.343 67.309 C 208.505 68.662 209.944 71.067 209.944 73.813 C 209.944 76.553 208.505 78.96 206.344 80.311 L 224.947 112.611 L 233.478 127.425 C 234.227 127.038 235.075 126.818 235.974 126.818 C 238.89 126.818 241.271 129.12 241.403 132.013 L 281.229 132.013 L 280.708 131.109 L 324.587 54.928 L 305.257 21.362 Z M 326.726 56.512 L 283.759 131.109 L 284.279 132.013 L 299.137 132.013 C 299.267 129.814 301.087 128.072 303.313 128.072 C 303.985 128.072 304.62 128.232 305.182 128.513 L 325.514 93.211 L 333.049 80.127 C 330.95 78.814 329.554 76.478 329.554 73.813 C 329.554 71.146 330.951 68.808 333.05 67.494 L 326.726 56.512 Z M 413.111 56.251 L 327.161 56.251 L 333.49 67.239 C 334.531 66.683 335.719 66.367 336.981 66.367 C 340.997 66.367 344.269 69.56 344.404 73.556 L 398.002 73.556 C 398.136 70.173 400.913 67.475 404.32 67.475 C 405.381 67.475 406.38 67.736 407.258 68.199 L 404.173 73.556 L 404.174 73.556 L 407.258 68.199 L 413.625 57.144 L 413.111 56.251 Z M 435.426 20.152 L 415.397 54.927 L 415.397 54.927 L 435.426 20.152 Z M 455.708 132.013 L 456.228 131.11 L 456.228 131.11 L 456.229 131.109 L 456.99 129.786 L 456.228 131.108 L 456.229 131.109 L 456.228 131.109 L 434.67 93.681 L 413.918 57.653 L 407.697 68.454 C 409.465 69.577 410.64 71.557 410.64 73.813 C 410.64 76.064 409.466 78.043 407.698 79.166 L 426.96 112.611 L 436.602 129.353 C 437.022 129.152 437.491 129.039 437.987 129.039 C 439.682 129.039 441.068 130.351 441.197 132.013 L 455.707 132.013 L 456.228 131.109 L 456.228 131.11 L 455.708 132.013 Z M 434.67 168.541 L 455.415 132.52 L 441.197 132.52 C 441.068 134.182 439.682 135.495 437.987 135.495 C 437.491 135.495 437.022 135.383 436.602 135.181 L 415.786 171.321 L 408.799 183.453 C 411.225 184.959 412.841 187.65 412.841 190.721 C 412.841 193.793 411.225 196.483 408.799 197.989 L 413.254 205.724 L 434.67 168.541 Z M 426.521 268.579 L 434.014 255.569 C 431.891 254.239 430.477 251.874 430.477 249.179 C 430.477 246.867 431.518 244.798 433.154 243.416 L 413.112 208.619 L 326.966 208.619 L 314.779 229.778 L 305.349 246.152 C 306.317 246.807 306.955 247.918 306.955 249.179 C 306.955 250.437 306.317 251.549 305.349 252.205 L 334.317 302.501 C 335.114 302.084 336.02 301.848 336.981 301.848 C 340.082 301.848 342.614 304.303 342.747 307.38 L 401.22 307.38 C 401.349 305.778 402.686 304.515 404.32 304.515 C 404.796 304.515 405.247 304.624 405.65 304.816 L 404.173 307.38 L 404.174 307.38 L 405.65 304.816 L 426.521 268.579 Z M 433.719 372.992 C 431.419 371.559 429.888 369.002 429.888 366.092 C 429.888 363.178 431.419 360.621 433.719 359.188 L 437.694 366.091 L 437.694 366.091 L 437.695 366.092 L 437.694 366.089 L 437.694 366.091 L 433.719 359.188 L 415.347 327.288 L 405.65 310.451 C 405.247 310.643 404.796 310.751 404.32 310.751 C 402.686 310.751 401.349 309.489 401.22 307.888 L 342.747 307.888 C 342.614 310.964 340.082 313.417 336.981 313.417 C 336.02 313.417 335.114 313.183 334.317 312.766 L 305.952 362.018 C 307.279 362.884 308.156 364.385 308.156 366.092 C 308.156 367.796 307.278 369.297 305.951 370.163 L 334.16 419.141 C 335.004 418.699 335.963 418.447 336.981 418.447 C 340.256 418.447 342.927 421.043 343.059 424.292 L 399.796 424.292 C 399.928 421.902 401.903 420.007 404.32 420.007 C 405.054 420.007 405.748 420.183 406.361 420.494 L 404.173 424.292 L 404.174 424.292 L 406.361 420.494 L 433.719 372.992 Z" stroke-linecap="round"/>
</g>
</svg>